PathFileType	4	(X/Y/Z)	C:/Users/opensim2020/Desktop/walking_exp_matlab/subject03_walking09_straight_03.trc																																																																																																																																											
DataRate	CameraRate	NumFrames	NumMarkers	Units	OrigDataRate	OrigDataStartFrame	OrigNumFrames																																																																																																																																							
100	100	4	47	mm	100	2891	383																																																																																																																																							
Frame#	Time	LFHD			RFHD			LBHD			RBHD			C7			T10			CLAV			STRN			RBAK			LSHO			LUPA			LELB			LFRM			LWRA			LWRB			LFIN			RSHO			RUPA			RELB			RFRM			RWRA			RWRB			RFIN			LASI			RASI			LPSI			RPSI			LTHI			LKNE			LTIB			LANK			LHEE			LTOE			RTHI			RKNE			RTIB			RANK			RHEE			RTOE			*39			*40			*41			*42			*43			*44			*45			*46		
		X1	Y1	Z1	X2	Y2	Z2	X3	Y3	Z3	X4	Y4	Z4	X5	Y5	Z5	X6	Y6	Z6	X7	Y7	Z7	X8	Y8	Z8	X9	Y9	Z9	X10	Y10	Z10	X11	Y11	Z11	X12	Y12	Z12	X13	Y13	Z13	X14	Y14	Z14	X15	Y15	Z15	X16	Y16	Z16	X17	Y17	Z17	X18	Y18	Z18	X19	Y19	Z19	X20	Y20	Z20	X21	Y21	Z21	X22	Y22	Z22	X23	Y23	Z23	X24	Y24	Z24	X25	Y25	Z25	X26	Y26	Z26	X27	Y27	Z27	X28	Y28	Z28	X29	Y29	Z29	X30	Y30	Z30	X31	Y31	Z31	X32	Y32	Z32	X33	Y33	Z33	X34	Y34	Z34	X35	Y35	Z35	X36	Y36	Z36	X37	Y37	Z37	X38	Y38	Z38	X39	Y39	Z39	X40	Y40	Z40	X41	Y41	Z41	X42	Y42	Z42	X43	Y43	Z43	X44	Y44	Z44	X45	Y45	Z45	X46	Y46	Z46	X47	Y47	Z47
																																																																																																																																														
96	0.95	-357.76813	1604.54358	-1082.16687	-380.1853	1610.60413	-950.74994	-478.31491	1545.91309	-1097.30493	-495.70404	1551.69922	-967.37372	-509.7132	1400.50061	-1040.18652	-556.04608	1089.4823	-1039.61279	-392.00034	1317.66846	-1025.66846	-356.72845	1150.48975	-1030.25891	-581.20502	1229.33936	-950.9859	-415.41507	1356.11633	-1184.05542	-394.27841	1166.58508	-1262.53894	-360.47586	1050.09583	-1278.91138	-288.83524	943.20844	-1267.87085	-227.42517	846.62097	-1226.48987	-244.20882	838.6189	-1278.39038	-193.30458	774.09088	-1261.68335	-451.59656	1342.5271	-870.85333	-468.02441	1117.48328	-806.86383	-457.61426	1004.42438	-796.9035	-446.24643	867.96405	-798.33502	-415.86792	773.50916	-834.31097	-450.92514	768.09497	-793.85962	-425.41248	699.55194	-800.26563	-389.2392	920.25854	-1152.79651	-395.87881	920.26892	-912.98932	-551.72382	947.82355	-1105.07654	-555.36066	949.78827	-955.80347	-490.50879	626.32819	-1184.92566	-530.08087	452.69101	-1146.61218	-630.80652	280.62106	-1150.41931	-707.96649	83.43399	-1108.42139	-756.4856	56.71401	-1074.58936	-565.2359	28.41337	-1080.44385	-399.13702	629.60614	-863.39697	-319.79489	466.64526	-896.67853	-298.89294	284.25928	-886.34088	-237.43053	73.32836	-921.12677	-265.66058	33.32795	-977.60437	-88.95681	64.00509	-931.51971	-454.05179	1654.05066	-1047.99304	NaN	NaN	NaN	NaN	NaN	NaN	NaN	NaN	NaN	NaN	NaN	NaN	NaN	NaN	NaN	NaN	NaN	NaN	NaN	NaN	NaN
97	0.96	-349.60919	1604.42041	-1080.64343	-372.14178	1610.24121	-949.25635	-470.02689	1545.55127	-1096.00476	-487.52527	1551.13013	-966.04822	-501.27618	1400.13489	-1038.88611	-547.39917	1089.26111	-1038.4823	-383.36795	1317.39197	-1024.52515	-348.15833	1150.15076	-1029.19727	-572.65076	1228.9425	-949.84625	-407.02502	1355.95605	-1183.01941	-386.83557	1166.22095	-1261.40637	-353.61282	1049.68042	-1278.10669	-282.02786	942.77228	-1266.79395	-220.3931	846.40906	-1225.19873	-237.41144	838.14038	-1277.04651	-186.30252	773.8537	-1260.38013	-443.05713	1342.10889	-869.59735	-459.98129	1117.00464	-805.87805	-449.78073	1003.87762	-796.01135	-439.08603	867.26251	-797.52783	-409.27136	772.59277	-833.52051	-444.30569	767.44464	-792.96411	-419.32272	698.59113	-799.56714	-380.66162	919.79041	-1151.66589	-387.07513	919.98352	-911.76337	-543.07489	947.41876	-1103.72302	-546.59967	949.64502	-954.52911	-483.16473	626.2464	-1184.23413	-523.57788	452.66629	-1146.5033	-626.65887	281.73108	-1150.48767	-706.71497	85.66305	-1108.83411	-755.89471	59.8503	-1074.83813	-565.05316	28.41481	-1080.51978	-389.87704	629.69568	-862.90436	-311.51657	466.34207	-896.46655	-292.92914	283.06659	-886.37683	-235.05284	71.34615	-921.91693	-264.35883	31.67579	-978.0321	-87.00875	59.7518	-933.24115	-446.10892	1653.7146	-1046.49939	NaN	NaN	NaN	NaN	NaN	NaN	NaN	NaN	NaN	NaN	NaN	NaN	NaN	NaN	NaN	NaN	NaN	NaN	NaN	NaN	NaN
98	0.97	-341.39041	1604.33704	-1079.19543	-363.99115	1610.01184	-947.849	-461.67603	1545.27942	-1094.67566	-479.31714	1550.70178	-964.69727	-492.80389	1399.81299	-1037.57874	-538.54041	1088.9104	-1037.28491	-374.82147	1317.14832	-1023.3241	-339.42865	1150.00989	-1028.00513	-564.09949	1228.58923	-948.60675	-398.6658	1355.79639	-1181.70422	-379.29257	1165.92554	-1260.17944	-346.9798	1048.99402	-1276.40979	-275.43417	942.25128	-1265.66663	-213.57547	846.09863	-1223.90845	-230.88736	837.57446	-1275.7804	-179.73808	773.34778	-1259.04883	-434.50302	1341.78101	-868.3078	-451.76968	1116.61072	-804.82794	-441.74127	1003.43042	-795.07544	-431.67667	866.78955	-796.68243	-402.46585	771.84412	-832.78778	-437.3714	766.98206	-792.05334	-412.96167	697.90479	-798.85284	-371.90405	919.44916	-1150.56934	-377.89304	919.9068	-910.46674	-534.20959	947.07666	-1102.32446	-537.56696	949.52338	-953.19653	-475.56699	626.16315	-1183.52307	-516.69788	452.60828	-1146.36633	-622.33185	282.89737	-1150.51343	-705.63977	88.00523	-1109.51123	-754.2782	62.54202	-1075.88293	-564.90619	28.39016	-1080.59448	-380.80765	629.86981	-862.46661	-303.42453	465.94125	-896.29181	-287.7883	281.62466	-886.60004	-233.95775	68.9826	-922.60974	-264.62213	29.34825	-978.95667	-86.54595	54.54905	-935.5791	-437.97491	1653.31689	-1044.99243	NaN	NaN	NaN	NaN	NaN	NaN	NaN	NaN	NaN	NaN	NaN	NaN	NaN	NaN	NaN	NaN	NaN	NaN	NaN	NaN	NaN
99	0.98	-333.13803	1604.35107	-1077.68591	-355.92438	1609.85388	-946.19189	-453.32208	1545.10779	-1093.2926	-471.04193	1550.32312	-963.32697	-484.4238	1399.68616	-1036.18921	-529.52631	1088.50891	-1035.97888	-366.15784	1317.01978	-1021.95789	-330.5256	1149.96753	-1026.78455	-555.37286	1228.17346	-947.34436	-390.15457	1355.70813	-1180.38989	-371.80685	1165.64917	-1258.94519	-340.24219	1048.51941	-1275.24927	-269.03098	941.6709	-1264.46765	-206.96652	845.63995	-1222.58838	-224.80719	836.84949	-1274.60461	-173.59695	772.6084	-1257.80542	-425.84006	1341.51819	-866.9408	-443.45868	1116.31299	-803.65063	-433.52826	1003.04962	-794.0907	-423.99133	866.33173	-795.76752	-395.40964	771.22064	-832.01501	-430.12448	766.60663	-791.10583	-406.52692	697.21771	-798.18658	-362.94635	919.05652	-1149.37793	-368.46448	919.8985	-909.22052	-525.26947	946.85437	-1100.83545	-528.31219	949.53839	-951.70392	-467.7605	626.06653	-1182.74231	-509.53534	452.55338	-1146.19287	-617.77832	284.16449	-1150.52795	-704.13251	90.61653	-1109.89429	-753.56421	66.31955	-1075.93835	-564.7309	28.37722	-1080.63123	-371.68079	629.93518	-862.26331	-295.90845	465.38071	-896.11237	-283.41684	280.13266	-887.06146	-232.34019	67.36311	-923.72278	-263.94702	28.96731	-980.0224	-85.49597	47.42198	-937.97076	-429.96448	1653.50659	-1042.97327	NaN	NaN	NaN	NaN	NaN	NaN	NaN	NaN	NaN	NaN	NaN	NaN	NaN	NaN	NaN	NaN	NaN	NaN	NaN	NaN	NaN
